<?xml version="1.0" encoding="utf-8"?>
<!-- Generator: Adobe Illustrator 21.1.0, SVG Export Plug-In . SVG Version: 6.00 Build 0)  -->
<svg version="1.1" id="Camada_1" xmlns="http://www.w3.org/2000/svg" xmlns:xlink="http://www.w3.org/1999/xlink" x="0px" y="0px"
	 viewBox="0 0 18.2 14.2" style="enable-background:new 0 0 18.2 14.2;" xml:space="preserve">
<style type="text/css">
	.st0{fill:#856625;}
</style>
<g>
	<path class="st0" d="M0.4,0.2h17.3c0.2,0,0.4,0.3,0.4,0.6V3c0,0.3-0.2,0.6-0.4,0.6H0.4C0.2,3.6,0,3.4,0,3V0.8
		C0,0.5,0.2,0.2,0.4,0.2z"/>
	<path class="st0" d="M0.4,5.5h17.3c0.2,0,0.4,0.3,0.4,0.6v2.2c0,0.3-0.2,0.6-0.4,0.6H0.4C0.2,8.9,0,8.6,0,8.3V6.1
		C0,5.7,0.2,5.5,0.4,5.5z"/>
	<path class="st0" d="M0.4,10.4h17.3c0.2,0,0.4,0.3,0.4,0.6v2.2c0,0.3-0.2,0.6-0.4,0.6H0.4c-0.2,0-0.4-0.3-0.4-0.6V11
		C0,10.6,0.2,10.4,0.4,10.4z"/>
</g>
</svg>
