<?xml version="1.0" encoding="utf-8"?>
<!-- Generator: Adobe Illustrator 21.1.0, SVG Export Plug-In . SVG Version: 6.00 Build 0)  -->
<svg version="1.1" id="Camada_1" xmlns="http://www.w3.org/2000/svg" xmlns:xlink="http://www.w3.org/1999/xlink" x="0px" y="0px"
	 viewBox="0 0 29.6 40" style="enable-background:new 0 0 29.6 40;" xml:space="preserve">
<style type="text/css">
	.st0{fill:#554218;}
	.st1{opacity:0.82;}
	.st2{fill:#FFFFFF;}
</style>
<path class="st0" d="M15.3,39.9H0V14.4C0,6.5,6.4,0.1,14.3,0.1h15.3v25.5C29.6,33.5,23.2,39.9,15.3,39.9z"/>
<g class="st1">
	<path class="st2" d="M15.2,20.2v6.1h-2v5.5H6.4V17.2c0-2.8,0.8-5,2.3-6.6c1.5-1.6,3.7-2.4,6.5-2.4c2.7,0,4.7,0.7,6,2.1
		c1.3,1.4,1.9,3.6,1.9,6.6v14.9h-6.8V17.4c0-0.9-0.1-1.5-0.3-1.9c-0.2-0.4-0.6-0.5-1.1-0.5c-1.1,0-1.6,0.8-1.6,2.4v2.9H15.2z"/>
</g>
</svg>
