<?xml version="1.0" encoding="utf-8"?>
<!-- Generator: Adobe Illustrator 21.1.0, SVG Export Plug-In . SVG Version: 6.00 Build 0)  -->
<svg version="1.1" id="Camada_1" xmlns="http://www.w3.org/2000/svg" xmlns:xlink="http://www.w3.org/1999/xlink" x="0px" y="0px"
	 viewBox="0 0 1920 1920" style="enable-background:new 0 0 1920 1920;" xml:space="preserve">
<style type="text/css">
	.st0{fill:none;}
	.st1{enable-background:new    ;}
	.st2{fill:#554218;}
	.st3{fill:#D8D7D3;}
	.st4{opacity:0.63;fill:url(#SVGID_1_);enable-background:new    ;}
	.st5{opacity:0.82;}
</style>
<g>
	<rect y="706.1" class="st0" width="1452.6" height="507.8"/>
	<g>
		<g class="st1">
			<path class="st2" d="M33.8,961.1V960c0-101.4,73.5-194.2,185.7-194.2c61.2,0,99.8,18.2,137.4,49.4l-18.2,20.9
				c-29.5-25.8-63.9-45.1-120.7-45.1c-91.2,0-155.1,77.3-155.1,167.9v1.1c0,97.1,60.6,169.6,161,169.6c47.8,0,92.3-19.9,119.7-42.9
				V978.8H217.9V953h152.4v144.9c-33.8,30-86.4,56.3-147.6,56.3C104.1,1154.2,33.8,1066.8,33.8,961.1z"/>
		</g>
		<g class="st1">
			<path class="st3" d="M459.9,1041.6V874.1h26.3v162.6c0,56.3,31.7,93.4,86.9,93.4c53.7,0,95-40.8,95-97.7V874.1h26.3v273.7h-26.3
				v-51c-18.2,32.2-48.8,57.4-98.7,57.4C500.1,1154.2,459.9,1107,459.9,1041.6z"/>
			<path class="st3" d="M794.7,766.8h32.7v36h-32.7V766.8z M797.9,874.1h26.3v273.7h-26.3V874.1z"/>
			<path class="st3" d="M905.3,1068.4v-1.1c0-56.9,48.8-89.1,119.7-89.1c38.1,0,64.4,4.8,90.7,11.8v-11.8
				c0-55.3-33.8-83.7-90.1-83.7c-33.3,0-60.6,9.1-85.9,22l-9.7-23.1c30-14,59.6-23.6,97.1-23.6c37,0,66.5,10.2,86.4,30
				c18.2,18.2,27.9,43.5,27.9,77.3v170.6h-25.8v-45.6c-18.8,26.3-52.6,52-104.6,52C960,1154.2,905.3,1125.3,905.3,1068.4z
				 M1116.1,1045.3v-31.1c-23.1-5.9-53.7-12.3-92.8-12.3c-58,0-90.1,25.8-90.1,63.9v1.1c0,39.7,37.6,62.8,79.4,62.8
				C1068.4,1129.6,1116.1,1095.2,1116.1,1045.3z"/>
			<path class="st3" d="M1212.2,1113.5l15.6-20.9c30,23.1,63.3,36,98.2,36c37,0,66-20.4,66-52v-1.1c0-32.2-34.3-44-72.4-54.7
				c-44.5-12.9-93.9-26.3-93.9-75.1v-1.1c0-44,37-75.7,90.1-75.7c32.7,0,69.8,11.8,97.1,30l-14,22c-25.2-16.6-55.3-27.4-84.2-27.4
				c-37.6,0-62.2,20.4-62.2,47.8v1.1c0,30.6,37,41.9,76.2,53.1c44,12.3,90.1,28.4,90.1,76.7v1.1c0,48.8-41.9,80-94.4,80
				C1284.6,1153.2,1241.2,1137.1,1212.2,1113.5z"/>
		</g>
	</g>
	
		<linearGradient id="SVGID_1_" gradientUnits="userSpaceOnUse" x1="1482.3" y1="960" x2="1887" y2="960" gradientTransform="matrix(1 0 0 -1 0 1920)">
		<stop  offset="2.298809e-02" style="stop-color:#554218"/>
		<stop  offset="1" style="stop-color:#6B4D2B;stop-opacity:0.7"/>
	</linearGradient>
	<path class="st4" d="M1691.5,1232.4h-209.2V883.1c0-108,87.5-195.5,195.5-195.5H1887v349.3
		C1887,1144.9,1799.5,1232.4,1691.5,1232.4z"/>
	<g class="st5">
		<path class="st3" d="M1690.6,963.3v83h-27v75H1570V921.1c0-38.8,10.6-68.9,31.7-90.3c21.1-21.5,50.9-32.2,89.2-32.2
			c36.9,0,64.2,9.7,81.9,29.2c17.7,19.5,26.5,49.5,26.5,90.1v203.4h-93.6V924.1c0-12.3-1.5-20.8-4.4-25.6s-8.2-7.2-15.7-7.2
			c-14.6,0-21.9,10.9-21.9,32.8v39.2H1690.6z"/>
	</g>
</g>
</svg>
