<?xml version="1.0" encoding="utf-8"?>
<!-- Generator: Adobe Illustrator 21.1.0, SVG Export Plug-In . SVG Version: 6.00 Build 0)  -->
<svg version="1.1" id="Camada_1" xmlns="http://www.w3.org/2000/svg" xmlns:xlink="http://www.w3.org/1999/xlink" x="0px" y="0px"
	 viewBox="0 0 18.2 14.2" style="enable-background:new 0 0 18.2 14.2;" xml:space="preserve">
<style type="text/css">
	.st0{fill:#856625;}
</style>
<g>
	<path class="st0" d="M0.1,6.5L0.1,6.5c0-3.4,2.4-6.4,6.1-6.4c2,0,3.3,0.6,4.5,1.6l-0.6,0.7c-1-0.9-2.1-1.5-4-1.5
		c-3,0-5.1,2.5-5.1,5.5v0c0,3.2,2,5.6,5.3,5.6c1.6,0,3-0.7,3.9-1.4V7.1H6.2V6.2h5V11c-1.1,1-2.8,1.9-4.9,1.9
		C2.5,12.9,0.1,10,0.1,6.5z"/>
	<path class="st0" d="M14.5,14.2v-1.6c-0.9,0-1.9-0.3-2.5-0.7l0.4-1.1c0.6,0.4,1.4,0.7,2.3,0.7c1.1,0,1.9-0.7,1.9-1.6
		C16.7,9,16,8.5,14.8,8c-1.6-0.6-2.7-1.4-2.7-2.8c0-1.3,0.9-2.3,2.4-2.6V1h1v1.6c1,0,1.6,0.3,2.1,0.6l-0.4,1.1c-0.3-0.2-1-0.5-2-0.5
		c-1.2,0-1.7,0.7-1.7,1.4c0,0.8,0.6,1.3,2,1.8c1.7,0.7,2.5,1.5,2.5,2.9c0,1.3-0.9,2.5-2.5,2.7v1.7H14.5z"/>
</g>
</svg>
